<?xml version="1.0" encoding="utf-8"?>
<!-- Generator: Adobe Illustrator 23.0.1, SVG Export Plug-In . SVG Version: 6.00 Build 0)  -->
<svg xmlns="http://www.w3.org/2000/svg" xmlns:xlink="http://www.w3.org/1999/xlink" version="1.1" id="Layer_1" x="0px" y="0px" viewBox="0 0 64 64" style="enable-background:new 0 0 64 64;" xml:space="preserve" width="512" height="512">
<style type="text/css">
	.st0{fill:#d8e8f5;}
	.st1{fill:#d8e8f5;}
	.st2{fill:#d8e8f5;}
	.st3{fill:#d8e8f5;}
	.st4{fill:#d8e8f5;}
	.st5{fill:#d8e8f5;}
	.st6{fill:#d8e8f5;}
	.st7{fill:#d8e8f5;}
	.st8{fill:#d8e8f5;}
	.st9{fill:#d8e8f5;}
	.st10{fill:#d8e8f5;}
	.st11{fill:#d8e8f5;}
	.st12{fill:#d8e8f5;}
	.st13{fill:#d8e8f5;}
	.st14{fill:#d8e8f5;}
	.st15{fill:#d8e8f5;}
	.st16{fill:#d8e8f5;}
	.st17{fill:#d8e8f5;}
	.st18{fill:#d8e8f5;}
	.st19{fill:#d8e8f5;}
	.st20{fill:#d8e8f5;}
	.st21{fill:#d8e8f5;}
	.st22{fill:#d8e8f5;}
	.st23{fill:#d8e8f5;}
	.st24{fill:#d8e8f5;}
	.st25{fill:#d8e8f5;}
	.st26{fill:#d8e8f5;}
	.st27{fill:#d8e8f5;}
	.st28{fill:#d8e8f5;}
	.st29{fill:#d8e8f5;}
	.st30{fill:#d8e8f5;}
	.st31{fill:#d8e8f5;}
	.st32{fill:none;stroke:#785AE6;stroke-linecap:round;stroke-linejoin:round;stroke-miterlimit:10;}
	.st33{fill:#d8e8f5;}
	.st34{fill:#d8e8f5;}
	.st35{fill:#d8e8f5;}
	.st36{fill:#d8e8f5;}
	.st37{fill:#d8e8f5;}
	.st38{fill:#d8e8f5;stroke:#785AE6;stroke-linecap:round;stroke-linejoin:round;stroke-miterlimit:10;}
	.st39{fill:none;stroke:#785AE6;stroke-miterlimit:10;}
	.st40{fill:#d8e8f5;}
	.st41{fill:#d8e8f5;}
	.st42{fill:none;stroke:#8D7BD4;stroke-linecap:round;stroke-linejoin:round;stroke-miterlimit:10;}
</style>
<path class="st3" d="M33.5,1.5v29h29C62.5,14.484,49.516,1.5,33.5,1.5z"/>
<path class="st4" d="M33.5,27.5v3h29c0-1.013-0.053-2.014-0.154-3H33.5z"/>
<path class="st5" d="M62.346,30.5H62.5c0-16.016-12.984-29-29-29v3C48.503,4.5,60.845,15.893,62.346,30.5z"/>
<g>
	<path class="st10" d="M62.5,31h-29c-0.276,0-0.5-0.224-0.5-0.5v-29C33,1.224,33.224,1,33.5,1C49.767,1,63,14.233,63,30.5   C63,30.776,62.776,31,62.5,31z M34,30h27.996C61.731,14.681,49.319,2.269,34,2.004V30z"/>
</g>
<path class="st7" d="M30.5,33.5v-29c-16.016,0-29,12.984-29,29c0,16.016,12.984,29,29,29s29-12.984,29-29H30.5z"/>
<path class="st8" d="M30.5,59.5C14.987,59.5,2.319,47.319,1.538,32C1.513,32.497,1.5,32.997,1.5,33.5c0,16.016,12.984,29,29,29  s29-12.984,29-29h-0.154C57.845,48.107,45.503,59.5,30.5,59.5z"/>
<g>
	<path class="st9" d="M30.5,33.5v3h28.846c0.101-0.986,0.154-1.987,0.154-3H30.5z"/>
	<path class="st9" d="M30.5,7.5v-3c-16.016,0-29,12.984-29,29c0,0.503,0.013,1.003,0.038,1.5C2.319,19.681,14.987,7.5,30.5,7.5z"/>
</g>
<g>
	<path class="st10" d="M30.5,63C14.233,63,1,49.767,1,33.5S14.233,4,30.5,4C30.776,4,31,4.224,31,4.5V33h28.5   c0.276,0,0.5,0.224,0.5,0.5C60,49.767,46.767,63,30.5,63z M30,5.004C14.515,5.272,2,17.952,2,33.5C2,49.215,14.785,62,30.5,62   c15.548,0,28.229-12.515,28.496-28H30.5c-0.276,0-0.5-0.224-0.5-0.5V5.004z"/>
</g>
<circle class="st18" cx="46" cy="19" r="8"/>
<g>
	<path class="st25" d="M49,23.5c-0.276,0-0.5-0.224-0.5-0.5c0-1.378-1.121-2.5-2.5-2.5s-2.5,1.122-2.5,2.5   c0,0.276-0.224,0.5-0.5,0.5s-0.5-0.224-0.5-0.5c0-1.93,1.57-3.5,3.5-3.5s3.5,1.57,3.5,3.5C49.5,23.276,49.276,23.5,49,23.5z"/>
</g>
<g>
	<path class="st10" d="M46,27.5c-0.345,0-0.687-0.021-1.021-0.061c-0.273-0.033-0.47-0.282-0.437-0.556   c0.033-0.275,0.288-0.468,0.556-0.438c1.981,0.234,4.104-0.361,5.678-1.662c0.211-0.176,0.525-0.146,0.704,0.067   c0.176,0.213,0.146,0.528-0.067,0.704C49.895,26.809,47.973,27.5,46,27.5z"/>
</g>
<g>
	<path class="st10" d="M39.044,23.454c-0.174,0-0.343-0.091-0.435-0.252C37.884,21.927,37.5,20.474,37.5,19   c0-4.687,3.813-8.5,8.5-8.5s8.5,3.813,8.5,8.5c0,0.574-0.058,1.146-0.17,1.7c-0.056,0.271-0.322,0.444-0.59,0.39   c-0.271-0.055-0.445-0.319-0.391-0.59c0.1-0.488,0.15-0.993,0.15-1.5c0-4.136-3.364-7.5-7.5-7.5s-7.5,3.364-7.5,7.5   c0,1.301,0.338,2.582,0.979,3.706c0.137,0.24,0.053,0.545-0.188,0.682C39.213,23.433,39.128,23.454,39.044,23.454z"/>
</g>
<g>
	<path class="st25" d="M43.5,19c-0.128,0-0.256-0.049-0.354-0.146l-2-2c-0.195-0.195-0.195-0.512,0-0.707s0.512-0.195,0.707,0l2,2   c0.195,0.195,0.195,0.512,0,0.707C43.756,18.951,43.628,19,43.5,19z"/>
</g>
<g>
	<path class="st25" d="M41.5,19c-0.128,0-0.256-0.049-0.354-0.146c-0.195-0.195-0.195-0.512,0-0.707l2-2   c0.195-0.195,0.512-0.195,0.707,0s0.195,0.512,0,0.707l-2,2C41.756,18.951,41.628,19,41.5,19z"/>
</g>
<g>
	<path class="st25" d="M50.5,19c-0.128,0-0.256-0.049-0.354-0.146l-2-2c-0.195-0.195-0.195-0.512,0-0.707s0.512-0.195,0.707,0l2,2   c0.195,0.195,0.195,0.512,0,0.707C50.756,18.951,50.628,19,50.5,19z"/>
</g>
<g>
	<path class="st25" d="M48.5,19c-0.128,0-0.256-0.049-0.354-0.146c-0.195-0.195-0.195-0.512,0-0.707l2-2   c0.195-0.195,0.512-0.195,0.707,0s0.195,0.512,0,0.707l-2,2C48.756,18.951,48.628,19,48.5,19z"/>
</g>
<g>
	<path class="st3" d="M19.5,50c-4.687,0-8.5-3.813-8.5-8.5s3.813-8.5,8.5-8.5s8.5,3.813,8.5,8.5S24.187,50,19.5,50z M19.5,35   c-3.584,0-6.5,2.916-6.5,6.5s2.916,6.5,6.5,6.5s6.5-2.916,6.5-6.5S23.084,35,19.5,35z"/>
</g>
<g>
	<g>
		<path class="st10" d="M19.5,50.5c-4.962,0-9-4.038-9-9s4.038-9,9-9s9,4.038,9,9S24.462,50.5,19.5,50.5z M19.5,33.5    c-4.411,0-8,3.589-8,8s3.589,8,8,8s8-3.589,8-8S23.911,33.5,19.5,33.5z M19.5,48.5c-3.86,0-7-3.14-7-7    c0-1.317,0.37-2.602,1.069-3.714c0.147-0.232,0.456-0.303,0.689-0.157c0.234,0.147,0.304,0.456,0.157,0.689    C13.816,39.271,13.5,40.371,13.5,41.5c0,3.309,2.691,6,6,6c0.986,0,1.965-0.246,2.83-0.71c0.242-0.131,0.546-0.04,0.677,0.204    c0.131,0.243,0.04,0.546-0.204,0.677C21.793,48.213,20.651,48.5,19.5,48.5z M25.165,45.185c-0.083,0-0.167-0.021-0.245-0.064    c-0.241-0.136-0.326-0.441-0.19-0.681C25.233,43.546,25.5,42.53,25.5,41.5c0-3.309-2.691-6-6-6c-0.95,0-1.859,0.216-2.702,0.644    c-0.249,0.125-0.548,0.025-0.672-0.22c-0.125-0.247-0.026-0.547,0.22-0.672c0.984-0.498,2.045-0.751,3.154-0.751    c3.86,0,7,3.14,7,7c0,1.202-0.311,2.388-0.899,3.43C25.509,45.093,25.339,45.185,25.165,45.185z"/>
	</g>
</g>
<path class="st3" d="M19.5,36.5L19.5,36.5c-0.552,0-1-0.448-1-1v-4c0-0.552,0.448-1,1-1h0c0.552,0,1,0.448,1,1v4  C20.5,36.052,20.052,36.5,19.5,36.5z"/>
<path class="st3" d="M19.5,52.5L19.5,52.5c-0.552,0-1-0.448-1-1v-4c0-0.552,0.448-1,1-1h0c0.552,0,1,0.448,1,1v4  C20.5,52.052,20.052,52.5,19.5,52.5z"/>
<path class="st3" d="M14.5,41.5L14.5,41.5c0,0.552-0.448,1-1,1h-4c-0.552,0-1-0.448-1-1l0,0c0-0.552,0.448-1,1-1h4  C14.052,40.5,14.5,40.948,14.5,41.5z"/>
<path class="st3" d="M30.5,41.5L30.5,41.5c0,0.552-0.448,1-1,1h-4c-0.552,0-1-0.448-1-1l0,0c0-0.552,0.448-1,1-1h4  C30.052,40.5,30.5,40.948,30.5,41.5z"/>
<circle class="st3" cx="19.5" cy="41.5" r="1"/>
<g>
	<path class="st10" d="M19.5,37c-0.827,0-1.5-0.673-1.5-1.5v-4c0-0.827,0.673-1.5,1.5-1.5s1.5,0.673,1.5,1.5v4   C21,36.327,20.327,37,19.5,37z M19.5,31c-0.276,0-0.5,0.224-0.5,0.5v4c0,0.276,0.224,0.5,0.5,0.5s0.5-0.224,0.5-0.5v-4   C20,31.224,19.776,31,19.5,31z"/>
</g>
<g>
	<path class="st10" d="M19.5,53c-0.827,0-1.5-0.673-1.5-1.5v-4c0-0.827,0.673-1.5,1.5-1.5s1.5,0.673,1.5,1.5v4   C21,52.327,20.327,53,19.5,53z M19.5,47c-0.276,0-0.5,0.224-0.5,0.5v4c0,0.276,0.224,0.5,0.5,0.5s0.5-0.224,0.5-0.5v-4   C20,47.224,19.776,47,19.5,47z"/>
</g>
<g>
	<path class="st10" d="M13.5,43h-4C8.673,43,8,42.327,8,41.5S8.673,40,9.5,40h4c0.827,0,1.5,0.673,1.5,1.5S14.327,43,13.5,43z    M9.5,41C9.224,41,9,41.224,9,41.5S9.224,42,9.5,42h4c0.276,0,0.5-0.224,0.5-0.5S13.776,41,13.5,41H9.5z"/>
</g>
<g>
	<path class="st10" d="M29.5,43h-4c-0.827,0-1.5-0.673-1.5-1.5s0.673-1.5,1.5-1.5h4c0.827,0,1.5,0.673,1.5,1.5S30.327,43,29.5,43z    M25.5,41c-0.276,0-0.5,0.224-0.5,0.5s0.224,0.5,0.5,0.5h4c0.276,0,0.5-0.224,0.5-0.5S29.776,41,29.5,41H25.5z"/>
</g>
<g>
	<path class="st10" d="M19.5,43c-0.827,0-1.5-0.673-1.5-1.5s0.673-1.5,1.5-1.5s1.5,0.673,1.5,1.5S20.327,43,19.5,43z M19.5,41   c-0.276,0-0.5,0.224-0.5,0.5s0.224,0.5,0.5,0.5s0.5-0.224,0.5-0.5S19.776,41,19.5,41z"/>
</g>
</svg>
