<?xml version="1.0" encoding="iso-8859-1"?>
<!-- Generator: Adobe Illustrator 17.1.0, SVG Export Plug-In . SVG Version: 6.00 Build 0)  -->
<!DOCTYPE svg PUBLIC "-//W3C//DTD SVG 1.1//EN" "http://www.w3.org/Graphics/SVG/1.1/DTD/svg11.dtd">
<svg version="1.1" id="Capa_1" xmlns="http://www.w3.org/2000/svg" xmlns:xlink="http://www.w3.org/1999/xlink" x="0px" y="0px"
	 viewBox="0 0 189 189" style="enable-background:new 0 0 189 189;" xml:space="preserve">
<path style="fill:#feffff;" d="M177.799,175.125H11.201c-6.176,0-11.201-5.024-11.201-11.2V25.076
	c0-6.177,5.024-11.201,11.201-11.201h166.599c6.176,0,11.201,5.024,11.201,11.201v138.849
	C189,170.101,183.976,175.125,177.799,175.125z M11.201,18.875C7.782,18.875,5,21.657,5,25.076v138.849c0,3.419,2.782,6.2,6.201,6.2
	h166.599c3.419,0,6.201-2.781,6.201-6.2V25.076c0-3.419-2.782-6.201-6.201-6.201H11.201z M94.5,164.801c-5.238,0-9.5-4.262-9.5-9.5
	s4.262-9.5,9.5-9.5s9.5,4.262,9.5,9.5S99.738,164.801,94.5,164.801z M94.5,150.801c-2.481,0-4.5,2.019-4.5,4.5s2.019,4.5,4.5,4.5
	s4.5-2.019,4.5-4.5S96.981,150.801,94.5,150.801z M174.902,142.25H14.099c-1.381,0-2.5-1.119-2.5-2.5V32.375
	c0-1.381,1.119-2.5,2.5-2.5h160.803c1.381,0,2.5,1.119,2.5,2.5V139.75C177.402,141.131,176.283,142.25,174.902,142.25z
	 M16.599,137.25h155.803V34.875H16.599V137.25z M118.818,115.796H70.182c-1.381,0-2.5-1.119-2.5-2.5V83.912h-3.58
	c-1.021,0-1.939-0.62-2.32-1.567c-0.38-0.947-0.147-2.03,0.589-2.737l30.398-29.15c0.968-0.928,2.493-0.928,3.461,0l30.398,29.15
	c0.737,0.707,0.97,1.79,0.589,2.737c-0.381,0.947-1.299,1.567-2.32,1.567h-3.58v29.384
	C121.318,114.677,120.199,115.796,118.818,115.796z M72.682,110.796h43.637V81.412c0-1.335,1.047-2.426,2.364-2.496L94.5,55.726
	l-24.183,23.19c1.317,0.07,2.364,1.161,2.364,2.496V110.796z M99.052,26.959h-9.104c-1.381,0-2.5-1.119-2.5-2.5s1.119-2.5,2.5-2.5
	h9.104c1.381,0,2.5,1.119,2.5,2.5S100.433,26.959,99.052,26.959z"/>
<g>
</g>
<g>
</g>
<g>
</g>
<g>
</g>
<g>
</g>
<g>
</g>
<g>
</g>
<g>
</g>
<g>
</g>
<g>
</g>
<g>
</g>
<g>
</g>
<g>
</g>
<g>
</g>
<g>
</g>
</svg>
