<svg viewBox="0 0 512 512" xmlns="http://www.w3.org/2000/svg"><path d="m448.476562 87.289062c-40.53125-46.226562-96.207031-76.347656-156.78125-84.8125-4.101562-.578124-7.890624 2.289063-8.464843 6.390626-.574219 4.101562 2.289062 7.890624 6.390625 8.464843 57.007812 7.96875 109.417968 36.324219 147.574218 79.847657 38.515626 43.925781 59.722657 100.328124 59.722657 158.820312 0 64.375-25.0625 124.894531-70.574219 170.414062-45.515625 45.515626-106.023438 70.585938-170.382812 70.585938-56.898438 0-112.117188-20.203125-155.496094-56.890625-3.160156-2.671875-7.894532-2.277344-10.570313.886719-2.675781 3.160156-2.277343 7.894531.882813 10.566406 46.082031 38.972656 104.746094 60.4375 165.183594 60.4375 68.367187 0 132.644531-26.628906 180.988281-74.980469 48.34375-48.351562 74.96875-112.640625 74.96875-181.019531 0-62.132812-22.53125-122.046875-63.441407-168.710938zm0 0"/><path d="m255.960938 15c4.140624 0 7.5-3.355469 7.5-7.5s-3.359376-7.5-7.5-7.5c-68.371094 0-132.648438 26.628906-180.992188 74.980469-48.34375 48.351562-74.96875 112.640625-74.96875 181.019531 0 61.382812 22.054688 120.75 62.097656 167.164062 1.480469 1.71875 3.578125 2.601563 5.679688 2.601563 1.738281 0 3.480468-.601563 4.898437-1.824219 3.136719-2.703125 3.484375-7.4375.777344-10.578125-37.695313-43.6875-58.453125-99.578125-58.453125-157.363281 0-64.375 25.0625-124.894531 70.574219-170.414062 45.515625-45.515626 106.023437-70.585938 170.386719-70.585938zm0 0"/><path d="m229.4375 116-44.601562 44.609375c-12.390626 12.394531-12.390626 32.5625 0 44.953125l44.046874 44.050781c5.269532 5.273438 12.261719 8.195313 19.710938 8.25-2.121094 1.222657-4.097656 2.726563-5.871094 4.5l-.089844.089844c-10.570312 10.574219-10.945312 27.539063-1.125 38.566406h-37.808593c-15.535157 0-28.171875 12.640625-28.171875 28.175781 0 15.539063 12.640625 28.175782 28.171875 28.175782h38.324219c-9.800782 11.054687-9.414063 28.027344 1.167968 38.609375 5.320313 5.324219 12.394532 8.253906 19.921875 8.253906 7.527344 0 14.601563-2.929687 19.921875-8.253906l44.042969-44.050781c12.394531-12.394532 12.394531-32.5625 0-44.953126l-7.085937-7.089843c-2.929688-2.929688-7.679688-2.929688-10.605469 0-2.929688 2.925781-2.929688 7.675781 0 10.605469l7.085937 7.085937c6.542969 6.546875 6.546875 17.199219 0 23.742187l-44.042968 44.054688c-2.488282 2.488281-5.796876 3.859375-9.316407 3.859375-3.515625 0-6.824219-1.371094-9.3125-3.859375-5.140625-5.136719-5.140625-13.496094 0-18.636719l11.5625-11.5625c2.144531-2.144531 2.785157-5.371093 1.625-8.171875-1.164062-2.804687-3.898437-4.632812-6.929687-4.632812h-56.355469c-7.265625 0-13.175781-5.910156-13.175781-13.175782 0-7.265624 5.910156-13.175781 13.175781-13.175781h55.84375c3.03125 0 5.765625-1.828125 6.929687-4.632812 1.160157-2.800781.515626-6.027344-1.625-8.171875l-11.609374-11.609375c-5.109376-5.113281-5.109376-13.433594 0-18.546875l.089843-.089844c2.476563-2.476562 5.769531-3.839844 9.269531-3.839844s6.792969 1.363282 9.269532 3.839844l12.957031 12.957031c2.929687 2.929688 7.679687 2.929688 10.609375.003907 2.925781-2.929688 2.925781-7.679688 0-10.609376l-12.957031-12.957031c-5.257813-5.253906-12.226563-8.171875-19.652344-8.226562 2.128906-1.230469 4.117187-2.738281 5.898437-4.523438 10.582032-10.582031 10.972657-27.554687 1.167969-38.605469h38.324219c15.535156 0 28.171875-12.640624 28.171875-28.179687 0-15.535156-12.636719-28.175781-28.171875-28.175781h-37.808594c9.820313-11.027344 9.445313-27.992188-1.125-38.566406l-.089844-.085938c-5.308593-5.3125-12.371093-8.234375-19.878906-8.234375-7.507812 0-14.566406 2.921875-19.878906 8.234375zm29.238281 10.691406c5.113281 5.113282 5.113281 13.4375 0 18.550782l-11.605469 11.609374c-2.144531 2.144532-2.789062 5.371094-1.625 8.171876 1.160157 2.800781 3.894532 4.628906 6.925782 4.628906h55.847656c7.261719 0 13.171875 5.910156 13.171875 13.175781 0 7.269531-5.910156 13.179687-13.171875 13.179687h-56.359375c-3.03125 0-5.765625 1.828126-6.925781 4.628907-1.164063 2.800781-.519532 6.027343 1.625 8.171875l11.5625 11.566406c5.136718 5.136719 5.136718 13.496094 0 18.636719-2.488282 2.484375-5.796875 3.855469-9.316406 3.855469-3.515626 0-6.824219-1.371094-9.3125-3.855469l-44.046876-44.054688c-6.542968-6.546875-6.542968-17.195312 0-23.742187l44.605469-44.609375c2.476563-2.476563 5.765625-3.839844 9.269531-3.839844 3.5 0 6.792969 1.363281 9.269532 3.839844zm0 0"/></svg>